<svg width="247" height="240" viewBox="0 0 247 240" fill="none" xmlns="http://www.w3.org/2000/svg">
<g clip-path="url(#clip0_414_26)">
<path d="M123.497 0C55.2884 0 0.000167035 55.18 0.000167035 123.247C-0.0336556 143.719 5.06955 163.874 14.8443 181.873C25.3773 167.123 38.2372 154.175 52.9235 143.533C52.9235 143.533 57.1389 140.127 66.191 134.78C64.4274 126.047 53.9656 65.2933 100.028 46.78C100.028 46.78 118.874 37.0667 146.611 46.78C152.362 49.0455 157.68 52.2816 162.331 56.3467V56.3467C162.331 56.3467 189.02 74.4067 187.777 144.16C187.022 186.16 178.625 216.827 163.146 239.973C187.595 231.696 208.832 215.984 223.872 195.042C238.912 174.101 247.001 148.984 247 123.22C246.993 55.18 191.705 0 123.497 0Z" fill="#12314D"/>
<path d="M175.518 70.7134C173.923 68.2829 172.003 66.0804 169.813 64.1667C167.772 61.2071 165.317 58.5536 162.524 56.2867C160.794 57.1134 157.434 58.9534 157.434 58.9534C156.458 59.4601 127.939 74.5268 123.49 101.427C118.974 74.0534 89.5192 58.9201 89.5192 58.9201C89.5192 58.9201 86.1789 57.1001 84.4286 56.2534C81.6068 58.5541 79.1319 61.2484 77.08 64.2534C74.9299 66.1487 73.0447 68.3237 71.475 70.7201C57.1252 97.0001 77.0399 113 77.0399 113C77.0399 113 90.2073 126.647 105.766 121.593C108.169 120.807 110.447 119.685 112.534 118.26L123.496 131.8L134.486 118.287C136.579 119.713 138.864 120.835 141.273 121.62C156.806 126.673 170 113.027 170 113.027C170 113.027 189.868 96.9934 175.518 70.7134ZM92.8394 104C82.5447 99.2201 82.2641 80.7867 82.2641 80.7867C85.7821 79.7072 89.4547 79.2161 93.1334 79.3334L91.4298 83.0001C91.4298 83.0001 86.9138 93.2734 96.7743 98.2001C105.713 102.66 111.345 92.2868 112.32 90.3001C114.011 93.3426 115.233 96.6215 115.947 100.027C115.947 100.027 103.127 108.76 92.8394 104ZM154.14 104C143.845 108.787 131.019 100.06 131.019 100.06C131.733 96.6393 132.963 93.3463 134.666 90.2934C135.695 92.3867 141.307 102.667 150.192 98.2334C160.066 93.3067 155.536 83.0334 155.536 83.0334L153.86 79.3667C157.528 79.2377 161.192 79.7175 164.702 80.7867C164.702 80.7867 164.435 99.2067 154.14 104Z" fill="#12314D"/>
</g>
<defs>
<clipPath id="clip0_414_26">
<rect width="247" height="240" fill="white"/>
</clipPath>
</defs>
</svg>
